<?xml version="1.0" encoding="UTF-8" standalone="no"?>
<!-- Created with Inkscape (http://www.inkscape.org/) -->

<svg
   version="1.1"
   id="svg1"
   width="474.66666"
   height="330.66666"
   viewBox="0 0 474.66666 330.66666"
   sodipodi:docname="IRB_logo.eps"
   xmlns:inkscape="http://www.inkscape.org/namespaces/inkscape"
   xmlns:sodipodi="http://sodipodi.sourceforge.net/DTD/sodipodi-0.dtd"
   xmlns="http://www.w3.org/2000/svg"
   xmlns:svg="http://www.w3.org/2000/svg">
  <defs
     id="defs1" />
  <sodipodi:namedview
     id="namedview1"
     pagecolor="#ffffff"
     bordercolor="#000000"
     borderopacity="0.25"
     inkscape:showpageshadow="2"
     inkscape:pageopacity="0.0"
     inkscape:pagecheckerboard="0"
     inkscape:deskcolor="#d1d1d1">
    <inkscape:page
       x="0"
       y="0"
       inkscape:label="1"
       id="page1"
       width="474.66666"
       height="330.66666"
       margin="0"
       bleed="0" />
  </sodipodi:namedview>
  <g
     id="g1"
     inkscape:groupmode="layer"
     inkscape:label="1">
    <path
       id="path1"
       d="m 2904.32,2217.98 h 648.03 V 260.922 H 2904.32 V 2217.98"
       style="fill:#2a4390;fill-opacity:1;fill-rule:evenodd;stroke:none"
       transform="matrix(0.13333333,0,0,-0.13333333,0,330.66667)" />
    <path
       id="path2"
       d="m 2271.91,2365.06 h 632.41 V 107.805 H 2271.91 V 2365.06"
       style="fill:#bab8b9;fill-opacity:1;fill-rule:evenodd;stroke:none"
       transform="matrix(0.13333333,0,0,-0.13333333,0,330.66667)" />
    <path
       id="path3"
       d="m 2271.91,1881.25 h 74.18 c 153.55,0 274.12,-28.27 362.43,-84.09 88.31,-55.81 132.33,-131.8 132.33,-228.23 0,-68.92 -22.28,-124.47 -67.08,-166.13 -44.81,-41.67 -113.73,-71.01 -207.01,-87.78 49.78,-31.19 96.95,-86.48 142.02,-165.61 l 6.29,-10.75 88.04,-158.789 7.08,-13.105 c 31.01,-57.184 62.34,-101.528 93.94,-133.012 l 0.19,-96.008 h -230.39 l -165.08,329.904 c -52.15,102.46 -94.33,166.13 -127.09,191.55 -29.37,22.98 -66.02,35.46 -110.34,37.65 v 49.61 h 24.92 c 101.93,0 179.23,21.75 232.42,64.99 52.94,43.49 79.4,106.64 79.4,189.97 0,75.21 -26.14,134.77 -78.35,178.19 -52.08,43.31 -123.19,65.48 -213.86,65.48 -16.53,0 -31.21,-1 -44.04,-1.43 z m 0,-1105.469 c 20.53,-1.281 39.28,-1.875 65.04,-1.875 h 17.56 v -36.16 h -82.6 v 38.035"
       style="fill:#ffffff;fill-opacity:1;fill-rule:nonzero;stroke:none"
       transform="matrix(0.13333333,0,0,-0.13333333,0,330.66667)" />
    <path
       id="path4"
       d="M 0.402344,2477.77 H 2272.16 V 1.13281 H 0.402344 V 2477.77"
       style="fill:#dd2324;fill-opacity:1;fill-rule:evenodd;stroke:none"
       transform="matrix(0.13333333,0,0,-0.13333333,0,330.66667)" />
    <path
       id="path5"
       d="m 2272.19,1843.68 c -36.19,-2.7 -60.89,-9.3 -74.31,-19.81 -17.82,-13.89 -26.73,-43.76 -26.73,-89.36 V 884.199 c 0,-44.547 8.91,-74.156 26.73,-89.094 13.42,-10.312 38.12,-16.726 74.31,-19.343 v -37.52 h -487.81 v 36.164 h 17.55 c 59.49,0 98.01,6.813 116.09,20.699 17.82,13.887 26.73,43.5 26.73,89.094 v 850.311 c 0,46.12 -8.65,75.99 -25.68,89.88 -17.3,13.89 -56.86,20.7 -118.71,20.7 v 36.16 h 471.83 v -37.57"
       style="fill:#ffffff;fill-opacity:1;fill-rule:evenodd;stroke:none"
       transform="matrix(0.13333333,0,0,-0.13333333,0,330.66667)" />
    <path
       id="path6"
       d="m 2904.32,1878.91 h 124.99 c 142.29,0 253.39,-24.89 333.84,-74.42 80.44,-49.78 120.53,-117.65 120.53,-204.13 0,-57.9 -23.05,-107.95 -69.17,-149.88 -46.12,-41.93 -113.99,-75.21 -204.13,-99.57 v -20.97 c 109.53,-16.24 191.81,-50.57 247.1,-103.24 55.29,-52.41 83.07,-121.06 83.07,-205.97 0,-90.66 -38.73,-160.718 -116.35,-210.41 -77.5,-49.617 -186.05,-72.574 -325.97,-72.574 h -193.91 c 0,34.059 0,63.098 0,95.961 57.9,-58.125 94.06,-61.394 139.36,-61.172 86.78,0.43 149.41,24.379 188.45,62.942 42.71,42.183 64.2,112.152 64.2,209.893 0,91.45 -25.94,161.15 -77.83,208.84 -51.88,47.43 -128.66,71.28 -229.8,71.28 h -84.38 v 42.19 h 74.41 c 93.03,0 159.85,18.86 200.2,56.33 40.36,37.74 60.53,99.84 60.53,186.31 0,83.33 -19.65,142.82 -58.96,178.71 -19.65,17.3 -46.11,30.66 -79.39,39.83 -33.54,9.18 -73.63,13.89 -120.28,13.89 -34.13,0 -59.63,-2.92 -76.51,-8.86 v 45.02"
       style="fill:#ffffff;fill-opacity:1;fill-rule:evenodd;stroke:none"
       transform="matrix(0.13333333,0,0,-0.13333333,0,330.66667)" />
  </g>
</svg>
